<?xml version="1.0" encoding="UTF-8"?>
<svg id="Camada_1" data-name="Camada 1" xmlns="http://www.w3.org/2000/svg" viewBox="0 0 1080 1080">
  <defs>
    <style>
      .cls-1 {
        fill: #fff;
        stroke-width: 0px;
      }
    </style>
  </defs>
  <g>
    <path class="cls-1" d="M356.8,456.27l61.1-62.37s-9.94,24.74,9.18,46.52c34.08,38.84,148.27,162.28,148.27,162.28l-123.24,6.47-92.61-94.56c-16.41-15.96-18.64-41.92-2.69-58.34Z"/>
    <path class="cls-1" d="M586.45,345.53c0-40.87-33.13-74-74-74s-74,33.13-74,74c0,7.96,1.29,15.62,3.62,22.8l-85.85,83.47c-16.41,15.96-16.79,42.19-.84,58.61l61.1,62.37s-9.94-24.74,9.18-46.52c18.98-21.63,62.79-69.48,97.9-107.65,35.59-5.37,62.89-35.99,62.89-73.08ZM512.45,292.95c29.04,0,52.58,23.54,52.58,52.58,0,6.5-1.24,12.7-3.39,18.45-1.86,4.97-4.46,9.58-7.65,13.7-.01.01-.02.03-.03.04-.73.94-1.49,1.85-2.28,2.73-.17.19-.35.39-.53.58-.77.84-1.55,1.66-2.37,2.44-.12.11-.24.22-.36.33-1.51,1.43-3.12,2.75-4.79,3.99-.37.27-.73.56-1.1.82-.69.48-1.4.93-2.11,1.38-.6.38-1.2.75-1.81,1.1-.66.38-1.33.75-2,1.1-.78.4-1.57.78-2.37,1.14-.57.26-1.12.53-1.7.77-1.36.56-2.74,1.07-4.15,1.52-.44.14-.9.25-1.35.38-1.08.31-2.16.6-3.26.84-.54.12-1.09.22-1.64.33-1.09.2-2.19.37-3.31.5-.5.06-1,.13-1.5.18-1.61.15-3.23.25-4.87.25s-3.27-.1-4.87-.25c-.5-.05-1-.12-1.5-.18-1.11-.13-2.22-.3-3.31-.5-.55-.1-1.1-.21-1.64-.33-1.1-.24-2.19-.53-3.26-.84-.45-.13-.91-.24-1.35-.38-1.41-.45-2.79-.96-4.15-1.52-.58-.24-1.13-.51-1.7-.77-.8-.36-1.59-.74-2.37-1.14-.68-.35-1.34-.72-2-1.1-.61-.35-1.21-.72-1.81-1.1-.71-.45-1.43-.9-2.11-1.38-.38-.26-.73-.55-1.1-.82-1.67-1.24-3.28-2.56-4.79-3.99-.12-.11-.24-.21-.36-.33-.82-.79-1.6-1.61-2.37-2.44-.18-.19-.35-.38-.53-.58-.79-.89-1.56-1.79-2.28-2.73-.01-.01-.02-.03-.03-.04-3.19-4.13-5.78-8.74-7.65-13.7-2.16-5.75-3.39-11.95-3.39-18.45,0-29.04,23.54-52.58,52.58-52.58Z"/>
  </g>
  <g>
    <path class="cls-1" d="M723.2,623.73l-61.1,62.37s9.94-24.74-9.18-46.52c-34.08-38.84-148.27-162.28-148.27-162.28l123.24-6.47,92.61,94.56c16.41,15.96,18.64,41.92,2.69,58.34Z"/>
    <path class="cls-1" d="M493.55,734.47c0,40.87,33.13,74,74,74s74-33.13,74-74c0-7.96-1.29-15.62-3.62-22.8l85.85-83.47c16.41-15.96,16.79-42.19.84-58.61l-61.1-62.37s9.94,24.74-9.18,46.52c-18.98,21.63-62.79,69.48-97.9,107.65-35.59,5.37-62.89,35.99-62.89,73.08ZM567.55,787.05c-29.04,0-52.58-23.54-52.58-52.58,0-6.5,1.24-12.7,3.39-18.45,1.86-4.97,4.46-9.58,7.65-13.7.01-.01.02-.03.03-.04.73-.94,1.49-1.85,2.28-2.73.17-.19.35-.39.53-.58.77-.84,1.55-1.66,2.37-2.44.12-.11.24-.22.36-.33,1.51-1.43,3.12-2.75,4.79-3.99.37-.27.73-.56,1.1-.82.69-.48,1.4-.93,2.11-1.38.6-.38,1.2-.75,1.81-1.1.66-.38,1.33-.75,2-1.1.78-.4,1.57-.78,2.37-1.14.57-.26,1.12-.53,1.7-.77,1.36-.56,2.74-1.07,4.15-1.52.44-.14.9-.25,1.35-.38,1.08-.31,2.16-.6,3.26-.84.54-.12,1.09-.22,1.64-.33,1.09-.2,2.19-.37,3.31-.5.5-.06,1-.13,1.5-.18,1.61-.15,3.23-.25,4.87-.25s3.27.1,4.87.25c.5.05,1,.12,1.5.18,1.11.13,2.22.3,3.31.5.55.1,1.1.21,1.64.33,1.1.24,2.19.53,3.26.84.45.13.91.24,1.35.38,1.41.45,2.79.96,4.15,1.52.58.24,1.13.51,1.7.77.8.36,1.59.74,2.37,1.14.68.35,1.34.72,2,1.1.61.35,1.21.72,1.81,1.1.71.45,1.43.9,2.11,1.38.38.26.73.55,1.1.82,1.67,1.24,3.28,2.56,4.79,3.99.12.11.24.21.36.33.82.79,1.6,1.61,2.37,2.44.18.19.35.38.53.58.79.89,1.56,1.79,2.28,2.73.01.01.02.03.03.04,3.19,4.13,5.78,8.74,7.65,13.7,2.16,5.75,3.39,11.95,3.39,18.45,0,29.04-23.54,52.58-52.58,52.58Z"/>
  </g>
</svg>