<?xml version="1.0" encoding="UTF-8"?>
<svg id="Camada_1" data-name="Camada 1" xmlns="http://www.w3.org/2000/svg" viewBox="0 0 1080 1080">
  <defs>
    <style>
      .cls-1 {
        letter-spacing: .4em;
      }

      .cls-2 {
        letter-spacing: .4em;
      }

      .cls-3 {
        letter-spacing: .35em;
      }

      .cls-4 {
        letter-spacing: .36em;
      }

      .cls-5 {
        letter-spacing: .36em;
      }

      .cls-6 {
        letter-spacing: .41em;
      }

      .cls-7 {
        letter-spacing: .4em;
      }

      .cls-8 {
        stroke-width: 0px;
      }

      .cls-8, .cls-9 {
        fill: #000;
      }

      .cls-10 {
        letter-spacing: .38em;
      }

      .cls-11 {
        letter-spacing: .35em;
      }

      .cls-12 {
        letter-spacing: .37em;
      }

      .cls-13 {
        letter-spacing: .38em;
      }

      .cls-14 {
        letter-spacing: .39em;
      }

      .cls-15 {
        letter-spacing: .39em;
      }

      .cls-16 {
        letter-spacing: .39em;
      }

      .cls-17 {
        letter-spacing: .38em;
      }

      .cls-18 {
        letter-spacing: .39em;
      }

      .cls-19 {
        letter-spacing: .39em;
      }

      .cls-20 {
        letter-spacing: .38em;
      }

      .cls-9 {
        font-family: Montserrat-Regular, Montserrat;
        font-size: 29.67px;
      }
    </style>
  </defs>
  <path class="cls-8" d="M433.87,430.09h13.54v10.15c4.69-7.81,12.45-11.71,23.3-11.71,5.47,0,10.24,1.26,14.32,3.77s7.16,6.03,9.24,10.54c3.47-5.03,7.22-8.68,11.26-10.93,4.04-2.26,9-3.38,14.91-3.38,8.07,0,14.92,3.15,20.56,9.44,5.64,6.29,8.46,14.07,8.46,23.36v40.35h-13.54v-36.83c0-15.53-6.03-23.3-18.09-23.3-5.47,0-10.07,2.21-13.8,6.64-3.73,4.42-5.6,9.98-5.6,16.66v36.83h-13.54v-36.83c0-15.53-6.03-23.3-18.09-23.3-5.47,0-10.06,2.21-13.79,6.64-3.73,4.42-5.6,9.98-5.6,16.66v36.83h-13.54v-71.58Z"/>
  <path class="cls-8" d="M616.69,458.46c0-4.6-1.82-8.68-5.47-12.23-3.64-3.56-8.85-5.33-15.62-5.33-5.03,0-9.46,1.15-13.27,3.45-3.82,2.3-6.81,5.4-8.98,9.3l-11.32-6.38c3.38-5.9,7.96-10.61,13.73-14.12,5.77-3.51,12.39-5.27,19.85-5.27,10.93,0,19.43,2.76,25.51,8.26,6.07,5.51,9.11,12.99,9.11,22.45v42.95h-13.54v-10.8c-2.08,3.73-5.57,6.77-10.48,9.11-4.9,2.35-10.08,3.52-15.55,3.52-8.59,0-15.71-2.13-21.35-6.38-5.64-4.25-8.46-9.68-8.46-16.27s2.67-11.73,8-15.94c5.34-4.21,13.04-6.31,23.1-6.31h24.73ZM590.67,490.35c4.42,0,8.5-.58,12.23-1.76s6.96-3.32,9.7-6.44c2.73-3.12,4.1-7.03,4.1-11.71h-24.73c-6.16,0-10.7,1.02-13.6,3.06-2.91,2.04-4.36,4.44-4.36,7.22s1.45,5.08,4.36,6.9c2.91,1.82,7.01,2.73,12.3,2.73Z"/>
  <path class="cls-8" d="M461.86,575.63c-7.81-1.04-13.91-3.25-18.29-6.64-4.38-3.38-6.57-7.77-6.57-13.15,0-6.68,2.86-12.1,8.59-16.26,5.72-4.17,13.58-6.25,23.56-6.25,7.28,0,13.86,1.85,19.72,5.53,5.86,3.69,9.78,7.66,11.78,11.91l-10.41,5.72c-1.04-2.42-3.71-4.85-8.01-7.28-4.29-2.43-8.83-3.65-13.6-3.65-5.81,0-10.37.96-13.67,2.86-3.3,1.91-4.95,4.03-4.95,6.38,0,2.17,1.43,3.99,4.3,5.47,2.86,1.48,6.25,2.52,10.15,3.13l13.41,2.08c7.55,1.13,13.54,3.56,17.96,7.28,4.43,3.73,6.64,8.03,6.64,12.89,0,7.29-2.76,13.06-8.27,17.31s-12.91,6.38-22.19,6.38c-8.59,0-16.21-1.73-22.84-5.2-6.64-3.47-11.22-7.81-13.73-13.01l10.41-7.29c1.65,3.47,5.01,6.5,10.09,9.11,5.07,2.6,10.52,3.91,16.33,3.91,5.21,0,9.35-.82,12.43-2.47,3.08-1.64,4.62-3.99,4.62-7.03,0-2.26-1.23-4.32-3.71-6.18-2.47-1.86-5.79-3.1-9.96-3.71l-13.79-1.82Z"/>
  <path class="cls-8" d="M537.44,575.63c-7.81-1.04-13.91-3.25-18.29-6.64s-6.57-7.77-6.57-13.15c0-6.68,2.86-12.1,8.59-16.26,5.72-4.17,13.58-6.25,23.56-6.25,7.28,0,13.86,1.85,19.72,5.53,5.86,3.69,9.78,7.66,11.78,11.91l-10.41,5.72c-1.04-2.42-3.71-4.85-8.01-7.28-4.29-2.43-8.83-3.65-13.6-3.65-5.81,0-10.37.96-13.67,2.86-3.3,1.91-4.95,4.03-4.95,6.38,0,2.17,1.43,3.99,4.3,5.47,2.86,1.48,6.25,2.52,10.15,3.13l13.41,2.08c7.55,1.13,13.54,3.56,17.96,7.28,4.43,3.73,6.64,8.03,6.64,12.89,0,7.29-2.76,13.06-8.27,17.31s-12.91,6.38-22.19,6.38c-8.59,0-16.21-1.73-22.84-5.2-6.64-3.47-11.22-7.81-13.73-13.01l10.41-7.29c1.65,3.47,5.01,6.5,10.09,9.11,5.07,2.6,10.52,3.91,16.33,3.91,5.21,0,9.35-.82,12.43-2.47,3.08-1.64,4.62-3.99,4.62-7.03,0-2.26-1.23-4.32-3.71-6.18-2.47-1.86-5.79-3.1-9.96-3.71l-13.79-1.82Z"/>
  <path class="cls-8" d="M647.73,583.83l11.33,6.38c-3.22,5.64-7.83,10.14-13.86,13.47-6.03,3.34-12.74,5.01-20.11,5.01-11.02,0-20.26-3.6-27.72-10.8-7.46-7.21-11.19-16.14-11.19-26.81s3.6-19.61,10.8-26.81c7.2-7.2,16.14-10.8,26.81-10.8s19.61,3.6,26.81,10.8c7.2,7.2,10.8,16.14,10.8,26.81,0,1.13-.07,2.19-.2,3.19-.13,1-.24,1.72-.33,2.15l-.26.65h-60.78c1.3,5.64,4.29,10.15,8.98,13.54,4.69,3.38,10.11,5.07,16.27,5.07,4.95,0,9.44-1.06,13.47-3.19s7.09-5.01,9.18-8.65ZM599.7,565.73h48.03c-1.22-5.55-4.06-10.15-8.52-13.79-4.47-3.65-9.61-5.47-15.43-5.47s-10.98,1.82-15.49,5.47c-4.51,3.64-7.37,8.24-8.59,13.79Z"/>
  <path class="cls-8" d="M673.38,535.41h13.54v10.15c4.69-7.81,12.45-11.71,23.3-11.71,5.47,0,10.24,1.26,14.32,3.77s7.16,6.03,9.24,10.54c3.47-5.03,7.22-8.68,11.26-10.93,4.04-2.26,9-3.38,14.91-3.38,8.07,0,14.92,3.15,20.56,9.44,5.64,6.29,8.46,14.07,8.46,23.36v40.35h-13.54v-36.83c0-15.53-6.03-23.3-18.09-23.3-5.47,0-10.07,2.21-13.8,6.64-3.73,4.42-5.6,9.98-5.6,16.66v36.83h-13.54v-36.83c0-15.53-6.03-23.3-18.09-23.3-5.47,0-10.06,2.21-13.79,6.64-3.73,4.42-5.6,9.98-5.6,16.66v36.83h-13.54v-71.58Z"/>
  <path class="cls-8" d="M817.6,606.99h-13.54v-97.62h13.54v35.4c6.59-7.55,15.27-11.32,26.03-11.32s19.18,3.49,26.03,10.48c6.85,6.98,10.28,16.03,10.28,27.13s-3.43,20.15-10.28,27.14c-6.86,6.98-15.53,10.48-26.03,10.48s-19.44-3.78-26.03-11.33v9.63ZM859.57,553.7c-4.82-4.82-10.61-7.22-17.37-7.22s-12.54,2.41-17.31,7.22c-4.77,4.82-7.16,10.61-7.16,17.37,0,7.2,2.36,13.1,7.09,17.7,4.73,4.6,10.52,6.9,17.37,6.9s12.67-2.3,17.44-6.9c4.77-4.6,7.16-10.5,7.16-17.7,0-6.77-2.41-12.56-7.22-17.37Z"/>
  <path class="cls-8" d="M905.78,606.99h-13.54v-97.62h13.54v97.62Z"/>
  <path class="cls-8" d="M915.78,535.41h14.84l21.34,65.34,21.48-65.34h14.84l-23.82,71.58-8.33,26.03h-14.57l8.46-26.03h-10.41l-23.82-71.58Z"/>
  <path class="cls-8" d="M764.74,442.84v-12.76h-32.67v-19.52h-13.54v19.52h-41.86c-1.58.26-4.35.85-6.54,2.08-5.1,2.89-8.93,5.56-11.19,8.59v-10.67h-13.54v71.58h13.54v-36.83c0-6.51,2.85-11.77,7.74-16.66,2.36-2.36,5.08-4.55,9.98-5.33h41.86v34.23c0,7.81,2.47,14.05,7.42,18.74,4.95,4.69,11.24,7.03,18.87,7.03,6.94,0,13.58-1.57,19.92-4.69l-2.47-12.89c-6.42,3.04-11.71,4.55-15.88,4.55-5.38,0-9.11-1.43-11.19-4.29s-3.13-6.98-3.13-12.36v-30.32h32.67Z"/>
  <text class="cls-9" transform="translate(357.55 663.97)"><tspan class="cls-11" x="0" y="0">A</tspan><tspan class="cls-15" x="31.67" y="0">U</tspan><tspan class="cls-3" x="66.7" y="0">T</tspan><tspan class="cls-18" x="94.26" y="0">O</tspan><tspan class="cls-14" x="130.59" y="0">M</tspan><tspan class="cls-5" x="170.42" y="0">A</tspan><tspan class="cls-7" x="202.42" y="0">Ç</tspan><tspan class="cls-4" x="235.77" y="0">Ã</tspan><tspan class="cls-1" x="267.77" y="0">O </tspan><tspan class="cls-12" x="324.18" y="0">I</tspan><tspan class="cls-13" x="344.23" y="0">N</tspan><tspan class="cls-10" x="379.5" y="0">D</tspan><tspan class="cls-20" x="415.4" y="0">U</tspan><tspan class="cls-6" x="450.12" y="0">S</tspan><tspan class="cls-16" x="480.39" y="0">T</tspan><tspan class="cls-17" x="508.87" y="0">R</tspan><tspan class="cls-19" x="541.7" y="0">I</tspan><tspan class="cls-14" x="562.1" y="0">A</tspan><tspan class="cls-2" x="594.87" y="0">L</tspan></text>
  <path class="cls-8" d="M377.81,462.78c-8.89-1.23-15.97-4.11-21.26-8.65-5.28-4.53-7.92-10.45-7.92-17.76,0-8.89,3.08-15.8,9.24-20.73,6.16-4.93,15.27-7.39,27.33-7.39,17.43,0,29.84,6.78,37.23,20.33l-11.62,5.81c-2.11-3.52-5.37-6.54-9.77-9.05-4.4-2.51-9.86-3.76-16.37-3.76-7.48,0-13.16,1.23-17.03,3.7-3.87,2.46-5.81,5.81-5.81,10.04,0,6.95,6.2,11.4,18.61,13.33l13.6,2.11c8.53,1.32,15.71,4.38,21.52,9.18,5.81,4.8,8.71,10.54,8.71,17.23,0,9.24-3.15,16.22-9.44,20.92-6.29,4.71-15.2,7.06-26.73,7.06-20.59,0-34.28-7.04-41.06-21.12l10.56-7.39c3.52,5.02,7.66,8.83,12.41,11.42,4.75,2.6,10.91,3.89,18.48,3.89,14.96,0,22.44-4.36,22.44-13.07,0-7.66-6.38-12.36-19.14-14.13l-13.99-1.98Z"/>
  <path class="cls-8" d="M429.1,609.33h-15.05l-7.53-22.97h-41.59l-7.66,22.97h-15.05l30.89-92.42h25.22l30.76,92.42ZM402.17,573.43l-16.5-50.17-16.5,50.17h33.01Z"/>
  <g>
    <g>
      <path class="cls-8" d="M99.43,490.88l35.84-36.59s-5.83,14.51,5.38,27.29c19.99,22.78,86.99,95.2,86.99,95.2l-72.3,3.79-54.33-55.48c-9.63-9.36-10.94-24.59-1.58-34.22Z"/>
      <path class="cls-8" d="M234.16,425.91c0-23.98-19.44-43.41-43.41-43.41s-43.41,19.44-43.41,43.41c0,4.67.76,9.16,2.12,13.38l-50.36,48.97c-9.63,9.36-9.85,24.75-.49,34.39l35.84,36.59s-5.83-14.51,5.38-27.29c11.13-12.69,36.84-40.76,57.43-63.15,20.88-3.15,36.9-21.11,36.9-42.87ZM190.75,395.07c17.04,0,30.85,13.81,30.85,30.85,0,3.81-.73,7.45-1.99,10.82-1.09,2.91-2.61,5.62-4.49,8.04,0,0-.01.02-.02.03-.43.55-.88,1.08-1.34,1.6-.1.11-.21.23-.31.34-.45.49-.91.97-1.39,1.43-.07.07-.14.13-.21.19-.89.84-1.83,1.61-2.81,2.34-.22.16-.43.33-.65.48-.4.28-.82.55-1.24.81-.35.22-.7.44-1.06.64-.39.22-.78.44-1.18.65-.46.24-.92.46-1.39.67-.33.15-.66.31-1,.45-.8.33-1.61.63-2.44.89-.26.08-.53.15-.79.22-.63.18-1.27.35-1.91.49-.32.07-.64.13-.96.19-.64.12-1.29.22-1.94.3-.29.04-.58.08-.88.1-.94.09-1.89.14-2.86.14s-1.92-.06-2.86-.14c-.3-.03-.59-.07-.88-.1-.65-.08-1.3-.18-1.94-.3-.32-.06-.64-.12-.96-.19-.65-.14-1.28-.31-1.91-.49-.26-.08-.53-.14-.79-.22-.83-.26-1.64-.56-2.44-.89-.34-.14-.66-.3-1-.45-.47-.21-.93-.43-1.39-.67-.4-.21-.79-.42-1.18-.65-.36-.21-.71-.42-1.06-.64-.42-.26-.84-.53-1.24-.81-.22-.15-.43-.32-.65-.48-.98-.73-1.92-1.5-2.81-2.34-.07-.06-.14-.13-.21-.19-.48-.46-.94-.94-1.39-1.43-.1-.11-.21-.23-.31-.34-.46-.52-.91-1.05-1.34-1.6,0,0-.01-.02-.02-.03-1.87-2.42-3.39-5.13-4.49-8.04-1.27-3.37-1.99-7.01-1.99-10.82,0-17.04,13.81-30.85,30.85-30.85Z"/>
    </g>
    <g>
      <path class="cls-8" d="M314.38,589.12l-35.84,36.59s5.83-14.51-5.38-27.29c-19.99-22.78-86.99-95.2-86.99-95.2l72.3-3.79,54.33,55.48c9.63,9.36,10.94,24.59,1.58,34.22Z"/>
      <path class="cls-8" d="M179.66,654.09c0,23.98,19.44,43.41,43.41,43.41s43.41-19.44,43.41-43.41c0-4.67-.76-9.16-2.12-13.38l50.36-48.97c9.63-9.36,9.85-24.75.49-34.39l-35.84-36.59s5.83,14.51-5.38,27.29c-11.13,12.69-36.84,40.76-57.43,63.15-20.88,3.15-36.9,21.11-36.9,42.87ZM223.07,684.93c-17.04,0-30.85-13.81-30.85-30.85,0-3.81.73-7.45,1.99-10.82,1.09-2.91,2.61-5.62,4.49-8.04,0,0,.01-.02.02-.03.43-.55.88-1.08,1.34-1.6.1-.11.21-.23.31-.34.45-.49.91-.97,1.39-1.43.07-.07.14-.13.21-.19.89-.84,1.83-1.61,2.81-2.34.22-.16.43-.33.65-.48.4-.28.82-.55,1.24-.81.35-.22.7-.44,1.06-.64.39-.22.78-.44,1.18-.65.46-.24.92-.46,1.39-.67.33-.15.66-.31,1-.45.8-.33,1.61-.63,2.44-.89.26-.08.53-.15.79-.22.63-.18,1.27-.35,1.91-.49.32-.07.64-.13.96-.19.64-.12,1.29-.22,1.94-.3.29-.04.58-.08.88-.1.94-.09,1.89-.14,2.86-.14s1.92.06,2.86.14c.3.03.59.07.88.1.65.08,1.3.18,1.94.3.32.06.64.12.96.19.65.14,1.28.31,1.91.49.26.08.53.14.79.22.83.26,1.64.56,2.44.89.34.14.66.3,1,.45.47.21.93.43,1.39.67.4.21.79.42,1.18.65.36.21.71.42,1.06.64.42.26.84.53,1.24.81.22.15.43.32.65.48.98.73,1.92,1.5,2.81,2.34.07.06.14.13.21.19.48.46.94.94,1.39,1.43.1.11.21.23.31.34.46.52.91,1.05,1.34,1.6,0,0,.01.02.02.03,1.87,2.42,3.39,5.13,4.49,8.04,1.27,3.37,1.99,7.01,1.99,10.82,0,17.04-13.81,30.85-30.85,30.85Z"/>
    </g>
  </g>
</svg>